<?xml version="1.0" encoding="UTF-8" standalone="no"?>
<svg width="59px" height="59px" viewBox="0 0 59 59" version="1.1" xmlns="http://www.w3.org/2000/svg" xmlns:xlink="http://www.w3.org/1999/xlink">
    <!-- Generator: Sketch 50.2 (55047) - http://www.bohemiancoding.com/sketch -->
    <title>clipboard</title>
    <desc>Created with Sketch.</desc>
    <defs>
        <polygon id="path-1" points="0 0 58.9953267 0 58.9953267 58.9929901 0 58.9929901"></polygon>
    </defs>
    <g id="Page-1" stroke="none" stroke-width="1" fill="none" fill-rule="evenodd">
        <g id="Blue-Customer-Service-Page" transform="translate(-229.000000, -859.000000)">
            <g id="Group-4" transform="translate(194.000000, 824.000000)">
                <g id="clipboard" transform="translate(35.000000, 35.000000)">
                    <g id="Group-3">
                        <mask id="mask-2" fill="white">
                            <use xlink:href="#path-1"></use>
                        </mask>
                        <g id="Clip-2"></g>
                        <path d="M29.5,0 C45.7924119,0 59,13.2075881 59,29.5 C59,45.7924119 45.7924119,59 29.5,59 C13.2075881,59 0,45.7924119 0,29.5 C0,13.2075881 13.2075881,0 29.5,0" id="Fill-1" fill="#455DE1" mask="url(#mask-2)"></path>
                    </g>
                    <path d="M44.3843564,49.8871287 L14.6156436,49.8871287 C14.3118812,49.8871287 14.0665347,49.6417822 14.0665347,49.3380198 L14.0665347,11.6013861 C14.0665347,11.2976238 14.3118812,11.0522772 14.6156436,11.0522772 L44.3960396,11.0522772 C44.699802,11.0522772 44.9451485,11.2976238 44.9451485,11.6013861 L44.9451485,49.3380198 C44.9334653,49.6417822 44.6881188,49.8871287 44.3843564,49.8871287" id="Fill-4" fill="#8B9DFF"></path>
                    <polyline id="Fill-5" fill="#FFFFFE" points="17.1041584 13.2837624 17.1041584 43.9871287 37.5730693 43.9871287 37.5730693 39.6643564 41.8958416 39.6643564 41.8958416 13.2837624 17.1041584 13.2837624"></polyline>
                    <polyline id="Fill-6" fill="#E6E9E9" points="37.5730693 43.9871287 41.8958416 39.6643564 37.5730693 39.6643564 37.5730693 43.9871287"></polyline>
                    <path d="M31.930099,9.81386139 L31.930099,8.9609901 C31.930099,7.61742574 30.8435644,6.53089109 29.5,6.53089109 C28.1564356,6.53089109 27.069901,7.61742574 27.069901,8.9609901 L27.069901,9.81386139 L22.7821782,9.81386139 L22.7821782,14.7908911 L36.229505,14.7908911 L36.229505,9.81386139 L31.930099,9.81386139" id="Fill-7" fill="#FACC5F"></path>
                    <path d="M29.5,7.75762376 C30.1710812,7.75762376 30.7150495,8.30159208 30.7150495,8.97267327 C30.7150495,9.64375446 30.1710812,10.1877228 29.5,10.1877228 C28.8289188,10.1877228 28.2849505,9.64375446 28.2849505,8.97267327 C28.2849505,8.30159208 28.8289188,7.75762376 29.5,7.75762376" id="Fill-8" fill="#455DE1"></path>
                    <polygon id="Fill-9" fill="#4050DD" points="20.5273267 22.3615842 23.3079208 22.3615842 23.3079208 21.0764356 20.5273267 21.0764356"></polygon>
                    <polygon id="Fill-10" fill="#E6E9E9" points="25.0370297 22.3615842 38.4726733 22.3615842 38.4726733 21.0764356 25.0370297 21.0764356"></polygon>
                    <polygon id="Fill-11" fill="#4050DD" points="20.5273267 26.3689109 23.3079208 26.3689109 23.3079208 25.0837624 20.5273267 25.0837624"></polygon>
                    <polygon id="Fill-12" fill="#E6E9E9" points="25.0370297 26.3689109 38.4726733 26.3689109 38.4726733 25.0837624 25.0370297 25.0837624"></polygon>
                    <polygon id="Fill-13" fill="#4050DD" points="20.5273267 30.3762376 23.3079208 30.3762376 23.3079208 29.0910891 20.5273267 29.0910891"></polygon>
                    <polygon id="Fill-14" fill="#E6E9E9" points="25.0370297 30.3762376 38.4726733 30.3762376 38.4726733 29.0910891 25.0370297 29.0910891"></polygon>
                    <polygon id="Fill-15" fill="#4050DD" points="20.5273267 34.3835644 23.3079208 34.3835644 23.3079208 33.0984158 20.5273267 33.0984158"></polygon>
                    <polygon id="Fill-16" fill="#E6E9E9" points="25.0370297 34.3835644 38.4726733 34.3835644 38.4726733 33.0984158 25.0370297 33.0984158"></polygon>
                </g>
            </g>
        </g>
    </g>
</svg>