<?xml version="1.0" encoding="UTF-8" standalone="no"?>
<svg width="64px" height="41px" viewBox="0 0 64 41" version="1.1" xmlns="http://www.w3.org/2000/svg" xmlns:xlink="http://www.w3.org/1999/xlink">
    <!-- Generator: Sketch 50.2 (55047) - http://www.bohemiancoding.com/sketch -->
    <title>Group 37</title>
    <desc>Created with Sketch.</desc>
    <defs></defs>
    <g id="Page-1" stroke="none" stroke-width="1" fill="none" fill-rule="evenodd">
        <g id="Blue-Customer-Service-Page" transform="translate(-928.000000, -294.000000)">
            <g id="Group-31" transform="translate(-82.000000, -655.000000)">
                <g id="Group-37" transform="translate(1042.000000, 969.500000) scale(-1, 1) translate(-1042.000000, -969.500000) translate(1010.000000, 949.000000)">
                    <path d="M0.438929134,8.37665432 L0.438929134,22.5494938 C0.438929134,27.0225432 4.04862992,30.6482593 8.50192126,30.6482593 L11.1027402,30.6482593 L11.1027402,40.5439383 L19.2055433,30.6482593 L55.6099528,30.6482593 C60.0627402,30.6482593 63.6729449,27.0225432 63.6729449,22.5494938 L63.6729449,8.37665432 C63.6729449,3.90411111 60.0627402,0.277888889 55.6099528,0.277888889 L8.50192126,0.277888889 C4.04862992,0.277888889 0.438929134,3.90411111 0.438929134,8.37665432" id="Fill-179" fill="#2817CB"></path>
                    <path d="M21.0114646,14.6402346 C21.0114646,16.4518272 19.5495433,17.9202346 17.7459528,17.9202346 C15.9428661,17.9202346 14.4804409,16.4518272 14.4804409,14.6402346 C14.4804409,12.8291481 15.9428661,11.3602346 17.7459528,11.3602346 C19.5495433,11.3602346 21.0114646,12.8291481 21.0114646,14.6402346" id="Fill-183" fill="#FFFFFE"></path>
                    <path d="M34.3214488,14.6402346 C34.3214488,16.4518272 32.8595276,17.9202346 31.055937,17.9202346 C29.2523465,17.9202346 27.7904252,16.4518272 27.7904252,14.6402346 C27.7904252,12.8291481 29.2523465,11.3602346 31.055937,11.3602346 C32.8595276,11.3602346 34.3214488,12.8291481 34.3214488,14.6402346" id="Fill-184" fill="#FFFFFE"></path>
                    <path d="M47.6309291,14.6402346 C47.6309291,16.4518272 46.1690079,17.9202346 44.3654173,17.9202346 C42.5618268,17.9202346 41.0999055,16.4518272 41.0999055,14.6402346 C41.0999055,12.8291481 42.5618268,11.3602346 44.3654173,11.3602346 C46.1690079,11.3602346 47.6309291,12.8291481 47.6309291,14.6402346" id="Fill-185" fill="#FFFFFE"></path>
                </g>
            </g>
        </g>
    </g>
</svg>