<?xml version="1.0" encoding="UTF-8" standalone="no"?>
<svg width="68px" height="67px" viewBox="0 0 68 67" version="1.1" xmlns="http://www.w3.org/2000/svg" xmlns:xlink="http://www.w3.org/1999/xlink">
    <!-- Generator: Sketch 50.2 (55047) - http://www.bohemiancoding.com/sketch -->
    <title>skills</title>
    <desc>Created with Sketch.</desc>
    <defs></defs>
    <g id="Page-1" stroke="none" stroke-width="1" fill="none" fill-rule="evenodd">
        <g id="Blue-Customer-Service-Page" transform="translate(-934.000000, -842.000000)">
            <g id="Group-30" transform="translate(892.000000, 804.000000)">
                <g id="skills" transform="translate(42.000000, 38.000000)">
                    <path d="M23.6419291,21.5509688 C24.0916729,21.6603672 24.2492272,22.5991523 23.9937089,23.6477285 C23.7383215,24.6963047 23.1666467,25.4577754 22.716772,25.348377 C22.2670283,25.2389785 22.109474,24.3001934 22.3649923,23.2516172 C22.6203797,22.203041 23.1921854,21.4415703 23.6419291,21.5509688" id="Fill-1" fill="#F6BC5B"></path>
                    <path d="M12.7361026,25.2667207 C12.2863589,25.3761191 11.7146841,24.6147793 11.4591658,23.5662031 C11.2037784,22.5174961 11.3612018,21.5788418 11.8110765,21.4694434 C12.2608202,21.3600449 12.832495,22.1213848 13.0880133,23.1699609 C13.3434007,24.218668 13.1858464,25.1573223 12.7361026,25.2667207" id="Fill-2" fill="#F6BC5B"></path>
                    <path d="M23.19009,20.51875 L23.0503472,22.333377 C23.0503472,22.333377 22.9106045,26.520877 22.07241,28.195877 L22.07241,34.197873 L13.8302083,34.197873 L13.5508538,28.614627 C13.5508538,28.614627 12.4331739,25.125 12.5729167,22.6125 C12.5729167,22.6125 11.874465,19.820877 12.0140767,18.145877 C12.1538194,16.470877 15.0875,14.377127 17.3227288,14.097873 C19.5578267,13.81875 24.0282844,13.958377 23.19009,20.51875" id="Fill-3" fill="#F6BC5B"></path>
                    <path d="M12.5729167,22.6125 C12.5729167,22.6125 12.4331739,20.797873 12.5729167,19.960373 C12.7126594,19.122873 13.1317566,17.308377 13.9699511,16.610373 C14.8081455,15.772873 16.3447917,15.075 18.300535,15.633377 C20.2564094,16.191623 20.9548611,16.33125 21.7930556,17.16875 C22.4915073,18.145877 21.9327983,18.00625 22.63125,18.564627 C23.3297017,19.122873 22.9106045,22.054123 22.9106045,22.333377 L23.0503472,22.333377 C23.0503472,22.333377 23.4694444,21.495877 23.7487989,19.68125 C24.0282844,17.866623 23.7487989,15.354123 22.3518955,13.539627 C20.9548611,11.725 16.4845344,10.05 13.8302083,13.81875 C13.8302083,13.81875 12.0140767,13.260373 11.7347222,16.052127 C11.4553677,18.84375 12.1538194,20.797873 12.1538194,21.495877 C12.2935622,21.914627 12.5729167,22.6125 12.5729167,22.6125" id="Fill-4" fill="#4050DD"></path>
                    <path d="M16.9036316,30.708377 C14.3890483,30.010373 13.5508538,28.614627 13.5508538,28.614627 L13.5508538,28.754123 L13.8302083,33.779123 C15.64634,33.5 17.6020833,33.08125 18.859375,32.383377 C21.6533128,30.847873 22.07241,28.335373 22.07241,28.335373 C21.6533128,29.033377 19.418215,31.266623 16.9036316,30.708377" id="Fill-5" fill="#EFA150"></path>
                    <polyline id="Fill-6" fill="#FFFFFF" points="20.5357639 52.064627 23.6091872 34.197873 17.8814378 34.197873 11.0362705 35.035373 14.3890483 52.064627 20.5357639 52.064627"></polyline>
                    <path d="M19.8373122,52.064627 C19.8373122,50.66875 19.8373122,49.272873 19.8373122,48.435373 C19.8373122,46.620877 19.8373122,42.154123 19.6975694,41.0375 C19.5578267,39.920877 18.5800205,38.525 18.5800205,38.10625 C18.5800205,37.6875 18.5800205,36.989627 18.5800205,36.989627 L17.3227288,36.710373 L17.1829861,38.10625 C17.1829861,38.10625 16.3447917,39.502127 16.0654372,41.177127 C15.7859517,42.852127 15.7859517,48.016623 15.7859517,48.016623 L17.8814378,52.204123 L19.8373122,52.204123 L19.8373122,52.064627" id="Fill-7" fill="#4050DD"></path>
                    <path d="M15.9256944,35.175 C15.9256944,35.175 17.3227288,37.547873 17.1829861,38.10625 C17.1829861,38.10625 18.0211806,37.827127 18.5800205,38.10625 C18.5800205,38.10625 19.8373122,35.872873 20.6755066,35.59375 L20.6755066,35.035373 C20.6755066,34.477127 16.4845344,33.360373 15.9256944,35.175" id="Fill-8" fill="#4050DD"></path>
                    <path d="M22.07241,30.847873 C22.07241,30.847873 21.9327983,31.685373 21.3739583,32.104123 C20.8151184,32.522873 17.8814378,34.058377 17.8814378,34.058377 L21.7930556,37.6875 L23.3297017,33.08125 C23.3297017,33.220877 22.63125,31.266623 22.07241,30.847873" id="Fill-9" fill="#FFFFFF"></path>
                    <path d="M30.5940972,52.064627 L37.4393955,52.064627 C36.6012011,49.4125 34.3659722,40.060373 33.6675205,38.245877 C32.9689378,36.43125 31.8513889,36.291623 31.8513889,36.291623 L27.9397712,37.966623 C26.5428677,42.014627 30.0352573,51.366623 30.0352573,51.366623 C30.0352573,51.366623 30.175,51.50625 30.5940972,52.064627" id="Fill-10" fill="#455DE1"></path>
                    <path d="M6.98491005,52.064627 L17.8814378,52.064627 C17.1829861,50.529123 16.2050489,48.435373 15.3668545,46.9 C13.8302083,44.108377 12.2935622,34.895877 12.2935622,34.895877 L11.7347222,33.220877 C11.7347222,33.220877 7.68349273,35.175 6.1467156,35.872873 C4.47032671,36.570877 3.21303505,37.129123 3.21303505,37.129123 C3.21303505,37.129123 5.30852116,43.689627 6.00710384,47.039627 C6.42620106,48.714627 6.70555556,50.66875 6.98491005,52.064627" id="Fill-11" fill="#8B9DFF"></path>
                    <path d="M30.5940972,52.064627 C28.0795139,45.64375 31.8513889,36.291623 31.8513889,36.291623 C28.6383538,35.59375 24.5869934,33.08125 24.5869934,33.08125 C24.4473816,36.570877 22.63125,44.666623 22.63125,44.666623 C22.63125,44.666623 20.6755066,47.597873 19.1387295,52.204123 L30.5940972,52.204123 L30.5940972,52.064627" id="Fill-12" fill="#8B9DFF"></path>
                    <path d="M19.9769239,52.064627 C21.0946038,49.691623 22.4915073,46.620877 23.3297017,45.225 C24.5869934,43.13125 25.5649306,39.641623 25.9840278,37.966623 C26.403125,36.291623 26.5428677,35.733377 26.5428677,35.733377 L24.8664788,34.477127 L25.7046733,34.477127 C25.7046733,34.477127 24.8664788,33.360373 24.4473816,32.941623 C24.0282844,32.6625 23.0503472,32.104123 22.9106045,31.685373 C22.63125,31.266623 22.63125,31.266623 22.3518955,31.127127 C22.3518955,31.127127 22.4915073,32.383377 22.4915073,33.220877 C22.3518955,34.058377 22.2121528,39.920877 21.5137011,42.852127 C21.0946038,44.80625 19.8373122,49.133377 18.9991177,51.645877 C18.9991177,51.785373 18.9991177,51.925 18.859375,52.064627 L19.9769239,52.064627" id="Fill-13" fill="#35515E"></path>
                    <g id="Group-17" transform="translate(9.000000, 31.667969)" fill="#35515E">
                        <path d="M1.89652778,8.6716582 C2.59497949,10.4861543 6.50659722,17.4654082 7.76388889,19.8382813 C7.90363162,20.1174043 8.04324338,20.2570313 8.04324338,20.3966582 L9.16092329,20.3966582 C9.02118056,19.8382813 8.74182606,19.4195313 8.4623406,18.8611543 C7.76388889,17.1861543 4.96995106,7.69453125 4.83020833,6.01953125 C4.6904656,4.34453125 4.55085384,0.0174042969 4.55085384,0.0174042969 C3.57291667,1.41328125 1.75678505,2.1111543 1.47743056,3.3674043 L2.17588227,3.50703125 L0.499493381,4.6236543 C0.359881619,4.4841582 1.19807606,6.85703125 1.89652778,8.6716582" id="Fill-14"></path>
                    </g>
                    <path d="M13.6904656,31.266623 C13.6904656,31.266623 16.6241462,33.779123 17.8814378,34.058377 C17.8814378,34.058377 15.5065972,36.152127 14.52866,37.6875 C14.52866,37.6875 13.8302083,35.59375 13.4111111,35.175 C12.9920139,34.75625 12.9920139,34.3375 12.8522712,34.058377 C12.8522712,33.91875 12.9920139,31.964627 13.6904656,31.266623" id="Fill-18" fill="#FFFFFF"></path>
                    <path d="M19.9769239,52.064627 C21.0946038,49.691623 22.4915073,46.620877 23.3297017,45.225 C24.5869934,43.13125 25.5649306,39.641623 25.9840278,37.966623 C26.403125,36.291623 26.5428677,35.733377 26.5428677,35.733377 L24.8664788,34.477127 L25.7046733,34.477127 C25.7046733,34.477127 24.8664788,33.360373 24.4473816,32.941623 C24.0282844,32.6625 23.0503472,32.104123 22.9106045,31.685373 C22.63125,31.266623 22.63125,31.266623 22.3518955,31.127127 C22.3518955,31.127127 22.4915073,32.383377 22.4915073,33.220877 C22.3518955,34.058377 22.2121528,39.920877 21.5137011,42.852127 C21.0946038,44.80625 19.8373122,49.133377 18.9991177,51.645877 C18.9991177,51.785373 18.9991177,51.925 18.859375,52.064627 L19.9769239,52.064627" id="Fill-19" fill="#455DE1"></path>
                    <g id="Group-23" transform="translate(0.000000, 51.484870)" fill="#455DE1">
                        <path d="M10.8965278,-11.1452432 C11.5949795,-9.33074711 15.5065972,-2.35149321 16.7638889,0.0213798415 C16.9036316,0.300502888 17.0432434,0.440129842 17.0432434,0.579756795 L18.1609233,0.579756795 C18.0211806,0.0213798415 17.7418261,-0.397370158 17.4623406,-0.955747112 C16.7638889,-2.63074711 13.9699511,-12.1223702 13.8302083,-13.7973702 C13.6904656,-15.4723702 13.5508538,-19.7994971 13.5508538,-19.7994971 C12.5729167,-18.4036202 10.756785,-17.7057471 10.4774306,-16.4494971 L11.1758823,-16.3098702 L9.49949338,-15.1932471 C9.35988162,-15.3327432 10.1980761,-12.9598702 10.8965278,-11.1452432" id="Fill-20"></path>
                        <path d="M6.98491005,0.579756795 C6.70555556,-0.816120158 6.42620106,-2.77024321 6.00710384,-4.44524321 C5.30852116,-7.65574711 3.21303505,-14.3557471 3.21303505,-14.3557471 C3.21303505,-14.3557471 2.65432606,-14.6348702 2.09548611,-12.9598702 C1.53664616,-11.2848702 0.279354492,-5.42237016 0.13974273,-3.46824711 C0.13974273,-2.90987016 0,-1.37449711 0,0.440129842 L6.98491005,0.440129842 L6.98491005,0.579756795" id="Fill-22"></path>
                    </g>
                    <path d="M58.6736111,50.25 C63.3028019,50.25 67.0555556,53.9996445 67.0555556,58.625 C67.0555556,63.2503555 63.3028019,67 58.6736111,67 C54.0444204,67 50.2916667,63.2503555 50.2916667,58.625 C50.2916667,53.9996445 54.0444204,50.25 58.6736111,50.25" id="Fill-24" fill="#8B9DFF"></path>
                    <g id="Group-28" transform="translate(50.291667, 27.218750)" fill="#FFFFFF">
                        <path d="M8.38194444,26.38125 C11.1595113,26.38125 13.4111111,28.6309844 13.4111111,31.40625 C13.4111111,34.1815156 11.1595113,36.43125 8.38194444,36.43125 C5.6043776,36.43125 3.35277778,34.1815156 3.35277778,31.40625 C3.35277778,28.6309844 5.6043776,26.38125 8.38194444,26.38125" id="Fill-25"></path>
                        <path d="M6.00710384,12.702127 C5.44826389,12.702127 5.02916667,12.5625 4.61006944,12.14375 L0.558839952,8.09587695 C-0.13974273,7.39787305 -0.13974273,6.14162305 0.558839952,5.44375 C1.25729167,4.74587695 2.51458333,4.74587695 3.21303505,5.44375 L6.00710384,8.09587695 L13.5508538,0.558376953 C14.2493056,-0.139626953 15.5065972,-0.139626953 16.2050489,0.558376953 C16.9036316,1.25625 16.9036316,2.5125 16.2050489,3.21037305 L7.26439551,12.14375 C6.98491005,12.422873 6.42620106,12.702127 6.00710384,12.702127" id="Fill-27"></path>
                    </g>
                    <path d="M44.1449511,34.895877 L44.1449511,55.69375 L46.7991462,55.69375 C47.6373406,55.69375 48.1961806,56.252127 48.1961806,57.089627 C48.1961806,57.7875 47.6373406,58.485373 46.7991462,58.485373 L42.7479167,58.485373 C41.9097222,58.485373 41.3508823,57.7875 41.3508823,57.089627 L41.3508823,34.895877 L35.7630066,34.895877 C34.9248122,34.895877 34.3659722,34.3375 34.3659722,33.5 C34.3659722,32.802127 34.9248122,32.104123 35.7630066,32.104123 L41.3508823,32.104123 L41.3508823,9.91037305 C41.3508823,9.2125 41.9097222,8.51462695 42.7479167,8.51462695 L46.7991462,8.51462695 C47.6373406,8.51462695 48.1961806,9.2125 48.1961806,9.91037305 C48.1961806,10.608377 47.6373406,11.30625 46.7991462,11.30625 L44.1449511,11.30625 L44.1449511,32.104123 L46.7991462,32.104123 C47.6373406,32.104123 48.1961806,32.802127 48.1961806,33.5 C48.1961806,34.3375 47.6373406,34.895877 46.7991462,34.895877 L44.1449511,34.895877" id="Fill-29" fill="#FFFFFF"></path>
                    <path d="M58.6736111,0 C63.3028019,0 67.0555556,3.74964453 67.0555556,8.375 C67.0555556,13.0003555 63.3028019,16.75 58.6736111,16.75 C54.0444204,16.75 50.2916667,13.0003555 50.2916667,8.375 C50.2916667,3.74964453 54.0444204,0 58.6736111,0" id="Fill-30" fill="#8B9DFF"></path>
                    <path d="M58.6736111,3.35 C61.451178,3.35 63.7027778,5.59973437 63.7027778,8.375 C63.7027778,11.1502656 61.451178,13.4 58.6736111,13.4 C55.8960443,13.4 53.6444444,11.1502656 53.6444444,8.375 C53.6444444,5.59973437 55.8960443,3.35 58.6736111,3.35" id="Fill-31" fill="#FFFFFF"></path>
                </g>
            </g>
        </g>
    </g>
</svg>